{
    "asset" : {
        "generator" : "Khronos glTF Blender I/O v1.6.16",
        "version" : "2.0"
    },
    "scene" : 0,
    "scenes" : [
        {
            "name" : "Scene",
            "nodes" : [
                0,
                1,
                2,
                3,
                4
            ]
        }
    ],
    "nodes" : [
        {
            "name" : "Light",
            "rotation" : [
                0.16907575726509094,
                0.7558803558349609,
                -0.27217137813568115,
                0.570947527885437
            ],
            "translation" : [
                4.076245307922363,
                5.903861999511719,
                -1.0054539442062378
            ]
        },
        {
            "name" : "Camera",
            "rotation" : [
                0.483536034822464,
                0.33687159419059753,
                -0.20870360732078552,
                0.7804827094078064
            ],
            "translation" : [
                7.358891487121582,
                4.958309173583984,
                6.925790786743164
            ]
        },
        {
            "mesh" : 0,
            "name" : "Plane",
            "rotation" : [
                0.01991252973675728,
                -0.015397276729345322,
                -0.9996719360351562,
                0.004737021401524544
            ]
        },
        {
            "mesh" : 1,
            "name" : "Plane.001",
            "rotation" : [
                0.01991252973675728,
                -0.015397276729345322,
                -0.9996719360351562,
                0.004737021401524544
            ]
        },
        {
            "mesh" : 2,
            "name" : "Plane.002",
            "rotation" : [
                0.01991252973675728,
                -0.015397276729345322,
                -0.9996719360351562,
                0.004737021401524544
            ]
        }
    ],
    "meshes" : [
        {
            "name" : "Plane",
            "primitives" : [
                {
                    "attributes" : {
                        "POSITION" : 0,
                        "NORMAL" : 1,
                        "TEXCOORD_0" : 2
                    },
                    "indices" : 3
                }
            ]
        },
        {
            "name" : "Plane.001",
            "primitives" : [
                {
                    "attributes" : {
                        "POSITION" : 4,
                        "NORMAL" : 5,
                        "TEXCOORD_0" : 6
                    },
                    "indices" : 7
                }
            ]
        },
        {
            "name" : "Plane.002",
            "primitives" : [
                {
                    "attributes" : {
                        "POSITION" : 8,
                        "NORMAL" : 9,
                        "TEXCOORD_0" : 10
                    },
                    "indices" : 11
                }
            ]
        }
    ],
    "accessors" : [
        {
            "bufferView" : 0,
            "componentType" : 5126,
            "count" : 1753,
            "max" : [
                0.9894374012947083,
                2.98103928565979,
                1.0852553844451904
            ],
            "min" : [
                -0.9264391660690308,
                -1.6820975542068481,
                -1.1074042320251465
            ],
            "type" : "VEC3"
        },
        {
            "bufferView" : 1,
            "componentType" : 5126,
            "count" : 1753,
            "type" : "VEC3"
        },
        {
            "bufferView" : 2,
            "componentType" : 5126,
            "count" : 1753,
            "type" : "VEC2"
        },
        {
            "bufferView" : 3,
            "componentType" : 5123,
            "count" : 2553,
            "type" : "SCALAR"
        },
        {
            "bufferView" : 4,
            "componentType" : 5126,
            "count" : 1681,
            "max" : [
                0.7897253632545471,
                -1.5550185441970825,
                0.768295407295227
            ],
            "min" : [
                -0.7269312143325806,
                -3.0139503479003906,
                -0.7483614683151245
            ],
            "type" : "VEC3"
        },
        {
            "bufferView" : 5,
            "componentType" : 5126,
            "count" : 1681,
            "type" : "VEC3"
        },
        {
            "bufferView" : 6,
            "componentType" : 5126,
            "count" : 1681,
            "type" : "VEC2"
        },
        {
            "bufferView" : 7,
            "componentType" : 5123,
            "count" : 2496,
            "type" : "SCALAR"
        },
        {
            "bufferView" : 8,
            "componentType" : 5126,
            "count" : 627,
            "max" : [
                0.9894374012947083,
                2.981677770614624,
                0.4319990277290344
            ],
            "min" : [
                -0.7772926688194275,
                1.6226645708084106,
                -0.42624807357788086
            ],
            "type" : "VEC3"
        },
        {
            "bufferView" : 9,
            "componentType" : 5126,
            "count" : 627,
            "type" : "VEC3"
        },
        {
            "bufferView" : 10,
            "componentType" : 5126,
            "count" : 627,
            "type" : "VEC2"
        },
        {
            "bufferView" : 11,
            "componentType" : 5123,
            "count" : 2955,
            "type" : "SCALAR"
        }
    ],
    "bufferViews" : [
        {
            "buffer" : 0,
            "byteLength" : 21036,
            "byteOffset" : 0
        },
        {
            "buffer" : 0,
            "byteLength" : 21036,
            "byteOffset" : 21036
        },
        {
            "buffer" : 0,
            "byteLength" : 14024,
            "byteOffset" : 42072
        },
        {
            "buffer" : 0,
            "byteLength" : 5106,
            "byteOffset" : 56096
        },
        {
            "buffer" : 0,
            "byteLength" : 20172,
            "byteOffset" : 61204
        },
        {
            "buffer" : 0,
            "byteLength" : 20172,
            "byteOffset" : 81376
        },
        {
            "buffer" : 0,
            "byteLength" : 13448,
            "byteOffset" : 101548
        },
        {
            "buffer" : 0,
            "byteLength" : 4992,
            "byteOffset" : 114996
        },
        {
            "buffer" : 0,
            "byteLength" : 7524,
            "byteOffset" : 119988
        },
        {
            "buffer" : 0,
            "byteLength" : 7524,
            "byteOffset" : 127512
        },
        {
            "buffer" : 0,
            "byteLength" : 5016,
            "byteOffset" : 135036
        },
        {
            "buffer" : 0,
            "byteLength" : 5910,
            "byteOffset" : 140052
        }
    ],
    "buffers" : [
        {
            "byteLength" : 145964,
            "uri" : "data:application/octet-stream;base64,"
        }
    ]
}
